{"accessors":[{"bufferView":0,"componentType":5126,"count":3466,"min":[-0.9625477194786072,-0.010828186757862568,-1.0921075344085694],"max":[-0.0739939883351326,0.4198271334171295,1.451246738433838],"type":"VEC3","name":"Plane_vertices#0_POSITION"},{"bufferView":0,"byteOffset":12,"componentType":5120,"count":3466,"type":"VEC4","name":"Plane_vertices#0_TANGENT"},{"bufferView":0,"byteOffset":16,"componentType":5120,"count":3466,"type":"VEC4","name":"Plane_vertices#0_NORMAL"},{"bufferView":0,"byteOffset":20,"componentType":5122,"count":3466,"type":"VEC2","name":"Plane_vertices#0_TEXCOORD_0"},{"bufferView":0,"byteOffset":24,"componentType":5122,"count":3466,"type":"VEC2","name":"Plane_vertices#0_TEXCOORD_1"},{"bufferView":0,"byteOffset":28,"componentType":5123,"count":3466,"type":"VEC4","name":"Plane_vertices#0_COLOR_0"},{"bufferView":1,"componentType":5123,"count":6450,"type":"SCALAR","name":"Plane_indices#0"}],"asset":{"generator":"Extended Khronos glTF Blender I/O v1.0.0","version":"2.0","extensions":{"ASOBO_asset_optimized":{"BoundingBoxMax":[-0.05158023536205292,0.4315086007118225,1.8504682779312134],"BoundingBoxMin":[-0.670979380607605,-0.011129476130008698,-1.3925340175628663],"MajorVersion":4,"MinorVersion":2},"ASOBO_normal_map_convention":{"tangent_space_convention":"DirectX"}}},"bufferViews":[{"buffer":0,"byteLength":124776,"byteStride":36,"byteOffset":24,"target":34962,"name":"BufferViewVertexND"},{"buffer":0,"byteLength":12900,"byteOffset":124828,"target":34963,"name":"BufferViewIndex"}],"extensionsUsed":["ASOBO_normal_map_convention","MSFT_texture_dds","ASOBO_asset_optimized"],"extensionsRequired":["MSFT_texture_dds"],"materials":[{"name":"Material.002","pbrMetallicRoughness":{"metallicFactor":0.0,"roughnessFactor":0.5,"baseColorTexture":{"index":0}}}],"meshes":[{"primitives":[{"attributes":{"COLOR_0":5,"NORMAL":2,"POSITION":0,"TANGENT":1,"TEXCOORD_0":3,"TEXCOORD_1":4},"indices":6,"material":0,"mode":4,"extras":{"ASOBO_primitive":{"PrimitiveCount":2150,"VertexType":"VTX","VertexVersion":2}}}],"name":"Plane"}],"nodes":[{"translation":[21.06855010986328,0.0,-2.252401351928711],"rotation":[0.0,-0.27267348766326907,0.0,0.9621066451072692],"scale":[106.9486083984375,157.6911163330078,195.62692260742188],"mesh":0,"name":"Water"}],"scene":0,"scenes":[{"nodes":[0],"name":"Scene"}],"textures":[{"extensions":{"MSFT_texture_dds":{"source":0}}}],"buffers":[{"byteLength":137728,"uri":"american_falls.bin"}],"images":[{"uri":"AMERICAN_FALLS_TEXTURE.PNG.DDS","name":"American_Falls_Texture","extras":"ASOBO_image_converted_meta"}]}
