{"accessors":[{"bufferView":0,"componentType":5126,"count":253932,"min":[-0.9403877854347229,-0.005133611150085926,-1.0837045907974244],"max":[-0.08937735855579376,0.4196940064430237,1.2690811157226563],"type":"VEC3","name":"Plane_vertices#0_POSITION"},{"bufferView":0,"byteOffset":12,"componentType":5120,"count":253932,"type":"VEC4","name":"Plane_vertices#0_TANGENT"},{"bufferView":0,"byteOffset":16,"componentType":5120,"count":253932,"type":"VEC4","name":"Plane_vertices#0_NORMAL"},{"bufferView":0,"byteOffset":20,"componentType":5122,"count":253932,"type":"VEC2","name":"Plane_vertices#0_TEXCOORD_0"},{"bufferView":0,"byteOffset":24,"componentType":5122,"count":253932,"type":"VEC2","name":"Plane_vertices#0_TEXCOORD_1"},{"bufferView":0,"byteOffset":28,"componentType":5123,"count":253932,"type":"VEC4","name":"Plane_vertices#0_COLOR_0"},{"bufferView":1,"componentType":5123,"count":380544,"type":"SCALAR","name":"Plane_indices#3"}],"asset":{"generator":"Extended Khronos glTF Blender I/O v1.0.0","version":"2.0","extensions":{"ASOBO_asset_optimized":{"BoundingBoxMax":[-0.062303781509399417,0.4313717782497406,1.6181910037994385],"BoundingBoxMin":[-0.6555320024490356,-0.005276451352983713,-1.381819486618042],"MajorVersion":4,"MinorVersion":2},"ASOBO_normal_map_convention":{"tangent_space_convention":"DirectX"}}},"bufferViews":[{"buffer":0,"byteLength":9141552,"byteStride":36,"byteOffset":80,"target":34962,"name":"BufferViewVertexND"},{"buffer":0,"byteLength":761088,"byteOffset":9141632,"target":34963,"name":"BufferViewIndex"}],"extensionsUsed":["ASOBO_normal_map_convention","MSFT_texture_dds","ASOBO_asset_optimized"],"extensionsRequired":["MSFT_texture_dds"],"materials":[{"name":"Material.002","pbrMetallicRoughness":{"metallicFactor":0.0,"roughnessFactor":0.5,"baseColorTexture":{"index":0}}}],"meshes":[{"primitives":[{"attributes":{"COLOR_0":5,"NORMAL":2,"POSITION":0,"TANGENT":1,"TEXCOORD_0":3,"TEXCOORD_1":4},"indices":6,"material":0,"mode":4,"extras":{"ASOBO_primitive":{"PrimitiveCount":32754,"VertexType":"VTX","VertexVersion":2}}},{"attributes":{"COLOR_0":5,"NORMAL":2,"POSITION":0,"TANGENT":1,"TEXCOORD_0":3,"TEXCOORD_1":4},"indices":6,"material":0,"mode":4,"extras":{"ASOBO_primitive":{"BaseVertexIndex":65530,"PrimitiveCount":32744,"StartIndex":98262,"VertexType":"VTX","VertexVersion":2}}},{"attributes":{"COLOR_0":5,"NORMAL":2,"POSITION":0,"TANGENT":1,"TEXCOORD_0":3,"TEXCOORD_1":4},"indices":6,"material":0,"mode":4,"extras":{"ASOBO_primitive":{"BaseVertexIndex":131058,"PrimitiveCount":32740,"StartIndex":196494,"VertexType":"VTX","VertexVersion":2}}},{"attributes":{"COLOR_0":5,"NORMAL":2,"POSITION":0,"TANGENT":1,"TEXCOORD_0":3,"TEXCOORD_1":4},"indices":6,"material":0,"mode":4,"extras":{"ASOBO_primitive":{"BaseVertexIndex":196588,"PrimitiveCount":28610,"StartIndex":294714,"VertexType":"VTX","VertexVersion":2}}}],"name":"Plane"}],"nodes":[{"translation":[21.06855010986328,0.0,-2.252401351928711],"rotation":[0.0,-0.27267348766326907,0.0,0.9621066451072692],"scale":[106.9486083984375,157.6911163330078,195.62692260742188],"mesh":0,"name":"Water"}],"scene":0,"scenes":[{"nodes":[0],"name":"Scene"}],"textures":[{"extensions":{"MSFT_texture_dds":{"source":0}}}],"buffers":[{"byteLength":9902720,"uri":"american_falls.bin"}],"images":[{"uri":"AMERICAN_FALLS_TEXTURE.PNG.DDS","name":"American_Falls_Texture","extras":"ASOBO_image_converted_meta"}]}
