{"accessors":[{"bufferView":0,"componentType":5126,"count":315164,"min":[-116.55908966064453,-12.406797409057618,-151.03810119628907],"max":[191.0895233154297,39.871490478515628,182.70053100585938],"type":"VEC3","name":"Plane_vertices#0_POSITION"},{"bufferView":0,"byteOffset":12,"componentType":5120,"count":315164,"type":"VEC4","name":"Plane_vertices#0_TANGENT"},{"bufferView":0,"byteOffset":16,"componentType":5120,"count":315164,"type":"VEC4","name":"Plane_vertices#0_NORMAL"},{"bufferView":0,"byteOffset":20,"componentType":5122,"count":315164,"type":"VEC2","name":"Plane_vertices#0_TEXCOORD_0"},{"bufferView":0,"byteOffset":24,"componentType":5122,"count":315164,"type":"VEC2","name":"Plane_vertices#0_TEXCOORD_1"},{"bufferView":0,"byteOffset":28,"componentType":5123,"count":315164,"type":"VEC4","name":"Plane_vertices#0_COLOR_0"},{"bufferView":1,"componentType":5123,"count":472704,"type":"SCALAR","name":"Plane_indices#4"},{"bufferView":0,"byteOffset":11345904,"componentType":5126,"count":65536,"min":[-127.42224884033203,-10.299013137817383,-127.42224884033203],"max":[127.42224884033203,9.768293380737305,127.42224884033203],"type":"VEC3","name":"Plane.001_vertices#0_POSITION"},{"bufferView":0,"byteOffset":11345916,"componentType":5120,"count":65536,"type":"VEC4","name":"Plane.001_vertices#0_TANGENT"},{"bufferView":0,"byteOffset":11345920,"componentType":5120,"count":65536,"type":"VEC4","name":"Plane.001_vertices#0_NORMAL"},{"bufferView":0,"byteOffset":11345924,"componentType":5122,"count":65536,"type":"VEC2","name":"Plane.001_vertices#0_TEXCOORD_0"},{"bufferView":0,"byteOffset":11345928,"componentType":5122,"count":65536,"type":"VEC2","name":"Plane.001_vertices#0_TEXCOORD_1"},{"bufferView":0,"byteOffset":11345932,"componentType":5123,"count":65536,"type":"VEC4","name":"Plane.001_vertices#0_COLOR_0"},{"bufferView":1,"byteOffset":945408,"componentType":5123,"count":98304,"type":"SCALAR","name":"Plane.001_indices#1"}],"asset":{"generator":"Extended Khronos glTF Blender I/O v1.0.0","version":"2.0","extensions":{"ASOBO_asset_optimized":{"BoundingBoxMax":[191.0895233154297,39.871490478515628,182.70053100585938],"BoundingBoxMin":[-127.42224884033203,-12.406797409057618,-151.03810119628907],"MajorVersion":4,"MinorVersion":2},"ASOBO_normal_map_convention":{"tangent_space_convention":"DirectX"}}},"bufferViews":[{"buffer":0,"byteLength":13705200,"byteStride":36,"byteOffset":16,"target":34962,"name":"BufferViewVertexND"},{"buffer":0,"byteLength":1142016,"byteOffset":13705216,"target":34963,"name":"BufferViewIndex"}],"extensionsUsed":["ASOBO_normal_map_convention","MSFT_texture_dds","ASOBO_asset_optimized"],"extensionsRequired":["MSFT_texture_dds"],"materials":[{"name":"Horseshoe","pbrMetallicRoughness":{"metallicFactor":0.0,"roughnessFactor":0.5,"baseColorTexture":{"index":0}}},{"name":"Horseshoe_Froth","pbrMetallicRoughness":{"metallicFactor":0.0,"roughnessFactor":0.5,"baseColorTexture":{"index":1}}}],"meshes":[{"primitives":[{"attributes":{"COLOR_0":5,"NORMAL":2,"POSITION":0,"TANGENT":1,"TEXCOORD_0":3,"TEXCOORD_1":4},"indices":6,"material":0,"mode":4,"extras":{"ASOBO_primitive":{"PrimitiveCount":32764,"VertexType":"VTX","VertexVersion":2}}},{"attributes":{"COLOR_0":5,"NORMAL":2,"POSITION":0,"TANGENT":1,"TEXCOORD_0":3,"TEXCOORD_1":4},"indices":6,"material":0,"mode":4,"extras":{"ASOBO_primitive":{"BaseVertexIndex":65528,"PrimitiveCount":32764,"StartIndex":98292,"VertexType":"VTX","VertexVersion":2}}},{"attributes":{"COLOR_0":5,"NORMAL":2,"POSITION":0,"TANGENT":1,"TEXCOORD_0":3,"TEXCOORD_1":4},"indices":6,"material":0,"mode":4,"extras":{"ASOBO_primitive":{"BaseVertexIndex":131056,"PrimitiveCount":32760,"StartIndex":196584,"VertexType":"VTX","VertexVersion":2}}},{"attributes":{"COLOR_0":5,"NORMAL":2,"POSITION":0,"TANGENT":1,"TEXCOORD_0":3,"TEXCOORD_1":4},"indices":6,"material":0,"mode":4,"extras":{"ASOBO_primitive":{"BaseVertexIndex":196584,"PrimitiveCount":32754,"StartIndex":294864,"VertexType":"VTX","VertexVersion":2}}},{"attributes":{"COLOR_0":5,"NORMAL":2,"POSITION":0,"TANGENT":1,"TEXCOORD_0":3,"TEXCOORD_1":4},"indices":6,"material":0,"mode":4,"extras":{"ASOBO_primitive":{"BaseVertexIndex":262112,"PrimitiveCount":26526,"StartIndex":393126,"VertexType":"VTX","VertexVersion":2}}}],"name":"Plane"},{"primitives":[{"attributes":{"COLOR_0":12,"NORMAL":9,"POSITION":7,"TANGENT":8,"TEXCOORD_0":10,"TEXCOORD_1":11},"indices":13,"material":1,"mode":4,"extras":{"ASOBO_primitive":{"PrimitiveCount":32764,"VertexType":"VTX","VertexVersion":2}}},{"attributes":{"COLOR_0":12,"NORMAL":9,"POSITION":7,"TANGENT":8,"TEXCOORD_0":10,"TEXCOORD_1":11},"indices":13,"material":1,"mode":4,"extras":{"ASOBO_primitive":{"BaseVertexIndex":65528,"PrimitiveCount":4,"StartIndex":98292,"VertexType":"VTX","VertexVersion":2}}}],"name":"Plane.001"}],"nodes":[{"translation":[-7.342965602874756,6.1998090744018559,3.821379184722901],"mesh":0,"name":"Horseshoe"},{"mesh":1,"name":"Froth"}],"scene":0,"scenes":[{"nodes":[0,1],"name":"Scene"}],"textures":[{"extensions":{"MSFT_texture_dds":{"source":0}}},{"extensions":{"MSFT_texture_dds":{"source":1}}}],"buffers":[{"byteLength":14847232,"uri":"horseshoe_falls_grouped.bin"}],"images":[{"uri":"HORSESHOE_FALLS_TEXTURE.PNG.DDS","name":"Horseshoe_falls_texture","extras":"ASOBO_image_converted_meta"},{"uri":"HORSESHOE_FROTH_TEXTURE.PNG.DDS","name":"Horseshoe_froth_texture","extras":"ASOBO_image_converted_meta"}]}
