{"accessors":[{"bufferView":0,"componentType":5126,"count":78798,"min":[-117.12213897705078,-13.131972312927246,-151.88999938964845],"max":[191.9010009765625,39.53855895996094,183.52882385253907],"type":"VEC3","name":"Plane_vertices#0_POSITION"},{"bufferView":0,"byteOffset":12,"componentType":5120,"count":78798,"type":"VEC4","name":"Plane_vertices#0_TANGENT"},{"bufferView":0,"byteOffset":16,"componentType":5120,"count":78798,"type":"VEC4","name":"Plane_vertices#0_NORMAL"},{"bufferView":0,"byteOffset":20,"componentType":5122,"count":78798,"type":"VEC2","name":"Plane_vertices#0_TEXCOORD_0"},{"bufferView":0,"byteOffset":24,"componentType":5122,"count":78798,"type":"VEC2","name":"Plane_vertices#0_TEXCOORD_1"},{"bufferView":0,"byteOffset":28,"componentType":5123,"count":78798,"type":"VEC4","name":"Plane_vertices#0_COLOR_0"},{"bufferView":1,"componentType":5123,"count":118176,"type":"SCALAR","name":"Plane_indices#1"},{"bufferView":0,"byteOffset":2836728,"componentType":5126,"count":65534,"min":[-127.42224884033203,-9.397359848022461,-127.42224884033203],"max":[127.42224884033203,8.537124633789063,127.42224884033203],"type":"VEC3","name":"Plane.001_vertices#0_POSITION"},{"bufferView":0,"byteOffset":2836740,"componentType":5120,"count":65534,"type":"VEC4","name":"Plane.001_vertices#0_TANGENT"},{"bufferView":0,"byteOffset":2836744,"componentType":5120,"count":65534,"type":"VEC4","name":"Plane.001_vertices#0_NORMAL"},{"bufferView":0,"byteOffset":2836748,"componentType":5122,"count":65534,"type":"VEC2","name":"Plane.001_vertices#0_TEXCOORD_0"},{"bufferView":0,"byteOffset":2836752,"componentType":5122,"count":65534,"type":"VEC2","name":"Plane.001_vertices#0_TEXCOORD_1"},{"bufferView":0,"byteOffset":2836756,"componentType":5123,"count":65534,"type":"VEC4","name":"Plane.001_vertices#0_COLOR_0"},{"bufferView":1,"byteOffset":236352,"componentType":5123,"count":98304,"type":"SCALAR","name":"Plane.001_indices#1"}],"asset":{"generator":"Extended Khronos glTF Blender I/O v1.0.0","version":"2.0","extensions":{"ASOBO_asset_optimized":{"BoundingBoxMax":[191.9010009765625,39.53855895996094,183.52882385253907],"BoundingBoxMin":[-127.42224884033203,-13.131972312927246,-151.88999938964845],"MajorVersion":4,"MinorVersion":2},"ASOBO_normal_map_convention":{"tangent_space_convention":"DirectX"}}},"bufferViews":[{"buffer":0,"byteLength":5195952,"byteStride":36,"byteOffset":80,"target":34962,"name":"BufferViewVertexND"},{"buffer":0,"byteLength":432960,"byteOffset":5196096,"target":34963,"name":"BufferViewIndex"}],"extensionsUsed":["ASOBO_normal_map_convention","ASOBO_asset_optimized"],"materials":[{"name":"Horseshoe","pbrMetallicRoughness":{"baseColorFactor":[0.800000011920929,0.800000011920929,0.800000011920929,1.0],"metallicFactor":0.0,"roughnessFactor":0.5}},{"name":"Horseshoe_Froth","pbrMetallicRoughness":{"baseColorFactor":[0.800000011920929,0.800000011920929,0.800000011920929,1.0],"metallicFactor":0.0,"roughnessFactor":0.5}}],"meshes":[{"primitives":[{"attributes":{"COLOR_0":5,"NORMAL":2,"POSITION":0,"TANGENT":1,"TEXCOORD_0":3,"TEXCOORD_1":4},"indices":6,"material":0,"mode":4,"extras":{"ASOBO_primitive":{"PrimitiveCount":32760,"VertexType":"VTX","VertexVersion":2}}},{"attributes":{"COLOR_0":5,"NORMAL":2,"POSITION":0,"TANGENT":1,"TEXCOORD_0":3,"TEXCOORD_1":4},"indices":6,"material":0,"mode":4,"extras":{"ASOBO_primitive":{"BaseVertexIndex":65530,"PrimitiveCount":6632,"StartIndex":98280,"VertexType":"VTX","VertexVersion":2}}}],"name":"Plane"},{"primitives":[{"attributes":{"COLOR_0":12,"NORMAL":9,"POSITION":7,"TANGENT":8,"TEXCOORD_0":10,"TEXCOORD_1":11},"indices":13,"material":1,"mode":4,"extras":{"ASOBO_primitive":{"PrimitiveCount":32766,"VertexType":"VTX","VertexVersion":2}}},{"attributes":{"COLOR_0":12,"NORMAL":9,"POSITION":7,"TANGENT":8,"TEXCOORD_0":10,"TEXCOORD_1":11},"indices":13,"material":1,"mode":4,"extras":{"ASOBO_primitive":{"BaseVertexIndex":65530,"PrimitiveCount":2,"StartIndex":98298,"VertexType":"VTX","VertexVersion":2}}}],"name":"Plane.001"}],"nodes":[{"translation":[-7.342965602874756,4.025201797485352,3.821379184722901],"mesh":0,"name":"Horseshoe"},{"mesh":1,"name":"Froth"}],"scene":0,"scenes":[{"nodes":[0,1],"name":"Scene"}],"buffers":[{"byteLength":5629056,"uri":"horseshoe_falls_group.bin"}]}
