{"accessors":[{"bufferView":0,"componentType":5126,"count":65536,"min":[-127.42224884033203,-8.351536750793457,-127.42224884033203],"max":[127.42224884033203,8.537124633789063,127.42224884033203],"type":"VEC3","name":"Plane.001_vertices#0_POSITION"},{"bufferView":0,"byteOffset":12,"componentType":5120,"count":65536,"type":"VEC4","name":"Plane.001_vertices#0_TANGENT"},{"bufferView":0,"byteOffset":16,"componentType":5120,"count":65536,"type":"VEC4","name":"Plane.001_vertices#0_NORMAL"},{"bufferView":0,"byteOffset":20,"componentType":5122,"count":65536,"type":"VEC2","name":"Plane.001_vertices#0_TEXCOORD_0"},{"bufferView":0,"byteOffset":24,"componentType":5122,"count":65536,"type":"VEC2","name":"Plane.001_vertices#0_TEXCOORD_1"},{"bufferView":0,"byteOffset":28,"componentType":5123,"count":65536,"type":"VEC4","name":"Plane.001_vertices#0_COLOR_0"},{"bufferView":1,"componentType":5123,"count":98304,"type":"SCALAR","name":"Plane.001_indices#1"}],"asset":{"generator":"Extended Khronos glTF Blender I/O v1.0.0","version":"2.0","extensions":{"ASOBO_asset_optimized":{"BoundingBoxMax":[127.42224884033203,8.537124633789063,127.42224884033203],"BoundingBoxMin":[-127.42224884033203,-8.351536750793457,-127.42224884033203],"MajorVersion":4,"MinorVersion":2},"ASOBO_normal_map_convention":{"tangent_space_convention":"DirectX"}}},"bufferViews":[{"buffer":0,"byteLength":2359296,"byteStride":36,"target":34962,"name":"BufferViewVertexND"},{"buffer":0,"byteLength":196608,"byteOffset":2359296,"target":34963,"name":"BufferViewIndex"}],"extensionsUsed":["ASOBO_normal_map_convention","ASOBO_asset_optimized"],"materials":[{"name":"Horseshoe_Froth","pbrMetallicRoughness":{"baseColorFactor":[0.800000011920929,0.800000011920929,0.800000011920929,1.0],"metallicFactor":0.0,"roughnessFactor":0.5}}],"meshes":[{"primitives":[{"attributes":{"COLOR_0":5,"NORMAL":2,"POSITION":0,"TANGENT":1,"TEXCOORD_0":3,"TEXCOORD_1":4},"indices":6,"material":0,"mode":4,"extras":{"ASOBO_primitive":{"PrimitiveCount":32764,"VertexType":"VTX","VertexVersion":2}}},{"attributes":{"COLOR_0":5,"NORMAL":2,"POSITION":0,"TANGENT":1,"TEXCOORD_0":3,"TEXCOORD_1":4},"indices":6,"material":0,"mode":4,"extras":{"ASOBO_primitive":{"BaseVertexIndex":65528,"PrimitiveCount":4,"StartIndex":98292,"VertexType":"VTX","VertexVersion":2}}}],"name":"Plane.001"}],"nodes":[{"mesh":0,"name":"Froth"}],"scene":0,"scenes":[{"nodes":[0],"name":"Scene"}],"buffers":[{"byteLength":2555904,"uri":"horseshoe_froth.bin"}]}
