{"accessors":[{"bufferView":0,"componentType":5126,"count":1682,"min":[-0.04035013169050217,-0.05610767379403114,-0.9999999403953552],"max":[0.8749999403953552,0.16937214136123658,0.9999999403953552],"type":"VEC3","name":"Plane.002_vertices#0_POSITION"},{"bufferView":0,"byteOffset":12,"componentType":5120,"count":1682,"type":"VEC4","name":"Plane.002_vertices#0_TANGENT"},{"bufferView":0,"byteOffset":16,"componentType":5120,"count":1682,"type":"VEC4","name":"Plane.002_vertices#0_NORMAL"},{"bufferView":0,"byteOffset":20,"componentType":5122,"count":1682,"type":"VEC2","name":"Plane.002_vertices#0_TEXCOORD_0"},{"bufferView":0,"byteOffset":24,"componentType":5122,"count":1682,"type":"VEC2","name":"Plane.002_vertices#0_TEXCOORD_1"},{"bufferView":0,"byteOffset":28,"componentType":5123,"count":1682,"type":"VEC4","name":"Plane.002_vertices#0_COLOR_0"},{"bufferView":1,"componentType":5123,"count":2688,"type":"SCALAR","name":"Plane.002_indices#0"}],"asset":{"generator":"Extended Khronos glTF Blender I/O v1.0.0","version":"2.0","extensions":{"ASOBO_asset_optimized":{"BoundingBoxMax":[0.8749998807907105,0.16937211155891419,0.9999998807907105],"BoundingBoxMin":[-0.04035013169050217,-0.056107666343450549,-0.9999998807907105],"MajorVersion":4,"MinorVersion":2},"ASOBO_normal_map_convention":{"tangent_space_convention":"DirectX"}}},"bufferViews":[{"buffer":0,"byteLength":60552,"byteStride":36,"byteOffset":120,"target":34962,"name":"BufferViewVertexND"},{"buffer":0,"byteLength":5376,"byteOffset":60672,"target":34963,"name":"BufferViewIndex"}],"extensionsUsed":["ASOBO_normal_map_convention","MSFT_texture_dds","ASOBO_asset_optimized"],"extensionsRequired":["MSFT_texture_dds"],"materials":[{"name":"American_Falls_Bottom","doubleSided":true,"pbrMetallicRoughness":{"metallicFactor":0.0,"roughnessFactor":0.5,"baseColorTexture":{"index":0}}}],"meshes":[{"primitives":[{"attributes":{"COLOR_0":5,"NORMAL":2,"POSITION":0,"TANGENT":1,"TEXCOORD_0":3,"TEXCOORD_1":4},"indices":6,"material":0,"mode":4,"extras":{"ASOBO_primitive":{"PrimitiveCount":896,"VertexType":"VTX","VertexVersion":2}}}],"name":"Plane.002"}],"nodes":[{"translation":[-39.16365051269531,27.69503593444824,-21.330902099609376],"rotation":[0.025252167135477064,-0.2149614542722702,-0.113905169069767,0.9696285724639892],"scale":[176.07208251953126,176.0720672607422,176.07208251953126],"mesh":0,"name":"AFBottom"}],"scene":0,"scenes":[{"nodes":[0],"name":"Scene"}],"textures":[{"extensions":{"MSFT_texture_dds":{"source":0}}}],"buffers":[{"byteLength":66048,"uri":"american_falls_froth.bin"}],"images":[{"uri":"AFBOTTOM.PNG.DDS","name":"AFBottom","extras":"ASOBO_image_converted_meta"}]}
