{"accessors":[{"bufferView":0,"componentType":5126,"count":315168,"min":[-116.55908966064453,-12.406797409057618,-151.03810119628907],"max":[191.0895233154297,39.871490478515628,182.70053100585938],"type":"VEC3","name":"Plane_vertices#0_POSITION"},{"bufferView":0,"byteOffset":12,"componentType":5120,"count":315168,"type":"VEC4","name":"Plane_vertices#0_TANGENT"},{"bufferView":0,"byteOffset":16,"componentType":5120,"count":315168,"type":"VEC4","name":"Plane_vertices#0_NORMAL"},{"bufferView":0,"byteOffset":20,"componentType":5122,"count":315168,"type":"VEC2","name":"Plane_vertices#0_TEXCOORD_0"},{"bufferView":0,"byteOffset":24,"componentType":5122,"count":315168,"type":"VEC2","name":"Plane_vertices#0_TEXCOORD_1"},{"bufferView":0,"byteOffset":28,"componentType":5123,"count":315168,"type":"VEC4","name":"Plane_vertices#0_COLOR_0"},{"bufferView":1,"componentType":5123,"count":472704,"type":"SCALAR","name":"Plane_indices#4"}],"asset":{"generator":"Extended Khronos glTF Blender I/O v1.0.0","version":"2.0","extensions":{"ASOBO_asset_optimized":{"BoundingBoxMax":[191.0895233154297,39.871490478515628,182.70053100585938],"BoundingBoxMin":[-116.55908966064453,-12.406797409057618,-151.03810119628907],"MajorVersion":4,"MinorVersion":2},"ASOBO_normal_map_convention":{"tangent_space_convention":"DirectX"}}},"bufferViews":[{"buffer":0,"byteLength":11346048,"byteStride":36,"target":34962,"name":"BufferViewVertexND"},{"buffer":0,"byteLength":945408,"byteOffset":11346048,"target":34963,"name":"BufferViewIndex"}],"extensionsUsed":["ASOBO_normal_map_convention","MSFT_texture_dds","ASOBO_asset_optimized"],"extensionsRequired":["MSFT_texture_dds"],"materials":[{"name":"Horseshoe","pbrMetallicRoughness":{"metallicFactor":0.0,"roughnessFactor":0.5,"baseColorTexture":{"index":0}}}],"meshes":[{"primitives":[{"attributes":{"COLOR_0":5,"NORMAL":2,"POSITION":0,"TANGENT":1,"TEXCOORD_0":3,"TEXCOORD_1":4},"indices":6,"material":0,"mode":4,"extras":{"ASOBO_primitive":{"PrimitiveCount":32764,"VertexType":"VTX","VertexVersion":2}}},{"attributes":{"COLOR_0":5,"NORMAL":2,"POSITION":0,"TANGENT":1,"TEXCOORD_0":3,"TEXCOORD_1":4},"indices":6,"material":0,"mode":4,"extras":{"ASOBO_primitive":{"BaseVertexIndex":65528,"PrimitiveCount":32764,"StartIndex":98292,"VertexType":"VTX","VertexVersion":2}}},{"attributes":{"COLOR_0":5,"NORMAL":2,"POSITION":0,"TANGENT":1,"TEXCOORD_0":3,"TEXCOORD_1":4},"indices":6,"material":0,"mode":4,"extras":{"ASOBO_primitive":{"BaseVertexIndex":131056,"PrimitiveCount":32760,"StartIndex":196584,"VertexType":"VTX","VertexVersion":2}}},{"attributes":{"COLOR_0":5,"NORMAL":2,"POSITION":0,"TANGENT":1,"TEXCOORD_0":3,"TEXCOORD_1":4},"indices":6,"material":0,"mode":4,"extras":{"ASOBO_primitive":{"BaseVertexIndex":196584,"PrimitiveCount":32752,"StartIndex":294864,"VertexType":"VTX","VertexVersion":2}}},{"attributes":{"COLOR_0":5,"NORMAL":2,"POSITION":0,"TANGENT":1,"TEXCOORD_0":3,"TEXCOORD_1":4},"indices":6,"material":0,"mode":4,"extras":{"ASOBO_primitive":{"BaseVertexIndex":262112,"PrimitiveCount":26528,"StartIndex":393120,"VertexType":"VTX","VertexVersion":2}}}],"name":"Plane"}],"nodes":[{"translation":[-7.342965602874756,6.1998090744018559,3.821379184722901],"mesh":0,"name":"Horseshoe"}],"scene":0,"scenes":[{"nodes":[0],"name":"Scene"}],"textures":[{"extensions":{"MSFT_texture_dds":{"source":0}}}],"buffers":[{"byteLength":12291456,"uri":"horseshoe_falls.bin"}],"images":[{"uri":"HORSESHOE_FALLS_TEXTURE.PNG.DDS","name":"Horseshoe_falls_texture","extras":"ASOBO_image_converted_meta"}]}
